PathFileType	4	(X/Y/Z) shrug_2kg_3.trc																										
DataRate	CameraRate	NumFrames	NumMarkers	Units	OrigDataRate	OrigDataStartFrame	OrigNumFrames																					
100	100	24	9	mm	100	418	556																					
Frame#	Time	gu			centelbow			EpL			centpxt8			centijc7			ij			ts			aa			ai		
		X1	Y1	Z1	X2	Y2	Z2	X3	Y3	Z3	X4	Y4	Z4	X5	Y5	Z5	X6	Y6	Z6	X7	Y7	Z7	X8	Y8	Z8	X9	Y9	Z9  
417	4.17	-101.24	-12.145	160.665	-146.036	-254.218	180.121	-130.598	-250.743	208.211	-46.816	-153.158	-8.669	-46.816	31.938	-8.669	0	0	0	-138.89	32.986	42.797	-125.613	26.081	161.123	-165.33	-77.392	44.576
418	4.18	-101.217	-12.245	160.726	-145.995	-254.323	180.156	-130.56	-250.85	208.247	-46.816	-153.158	-8.669	-46.816	31.938	-8.669	0	0	0	-138.959	33.079	42.727	-125.728	26.18	161.058	-165.359	-77.309	44.496
419	4.19	-101.248	-12.263	160.788	-145.992	-254.352	180.16	-130.558	-250.883	208.253	-46.816	-153.158	-8.669	-46.816	31.938	-8.669	0	0	0	-139.128	33.336	42.738	-125.935	26.439	161.073	-165.468	-77.066	44.492
420	4.2	-101.337	-12.226	160.839	-146.07	-254.322	180.139	-130.638	-250.861	208.233	-46.816	-153.158	-8.669	-46.816	31.938	-8.669	0	0	0	-139.249	33.545	42.698	-126.063	26.645	161.034	-165.54	-76.87	44.443
421	4.21	-101.43	-12.175	161.021	-146.192	-254.272	180.245	-130.764	-250.82	208.343	-46.816	-153.158	-8.669	-46.816	31.938	-8.669	0	0	0	-139.234	33.563	42.616	-126.033	26.655	160.95	-165.511	-76.855	44.355
422	4.22	-101.57	-12.136	161.382	-146.392	-254.228	180.526	-130.966	-250.789	208.626	-46.816	-153.158	-8.669	-46.816	31.938	-8.669	0	0	0	-139.149	33.459	42.661	-125.944	26.525	160.992	-165.446	-76.955	44.379
423	4.23	-101.815	-12.121	161.823	-146.695	-254.211	180.867	-131.264	-250.788	208.966	-46.816	-153.158	-8.669	-46.816	31.938	-8.669	0	0	0	-139.08	33.391	42.911	-125.88	26.409	161.24	-165.403	-77.017	44.587
424	4.24	-102.08	-12.121	162.16	-146.981	-254.217	181.069	-131.538	-250.813	209.165	-46.816	-153.158	-8.669	-46.816	31.938	-8.669	0	0	0	-139.037	33.41	43.209	-125.821	26.365	161.532	-165.368	-76.997	44.829
425	4.25	-102.249	-12.137	162.27	-147.144	-254.249	180.992	-131.685	-250.871	209.081	-46.816	-153.158	-8.669	-46.816	31.938	-8.669	0	0	0	-139.018	33.443	43.406	-125.757	26.323	161.721	-165.348	-76.965	44.966
426	4.26	-102.321	-12.184	162.236	-147.221	-254.312	180.744	-131.742	-250.963	208.826	-46.816	-153.158	-8.669	-46.816	31.938	-8.669	0	0	0	-139.038	33.497	43.527	-125.722	26.294	161.83	-165.374	-76.91	45.023
427	4.27	-102.356	-12.235	162.288	-147.274	-254.373	180.618	-131.777	-251.05	208.694	-46.816	-153.158	-8.669	-46.816	31.938	-8.669	0	0	0	-139.118	33.67	43.666	-125.752	26.388	161.958	-165.455	-76.738	45.1
428	4.28	-102.368	-12.264	162.491	-147.292	-254.408	180.713	-131.785	-251.1	208.785	-46.816	-153.158	-8.669	-46.816	31.938	-8.669	0	0	0	-139.259	33.944	43.849	-125.857	26.596	162.134	-165.579	-76.469	45.228
429	4.29	-102.321	-12.275	162.651	-147.212	-254.431	180.81	-131.695	-251.131	208.877	-46.816	-153.158	-8.669	-46.816	31.938	-8.669	0	0	0	-139.365	34.185	43.989	-125.948	26.789	162.269	-165.654	-76.235	45.322
430	4.3	-102.259	-12.261	162.612	-147.076	-254.435	180.711	-131.551	-251.139	208.774	-46.816	-153.158	-8.669	-46.816	31.938	-8.669	0	0	0	-139.345	34.271	44.074	-125.938	26.842	162.353	-165.612	-76.155	45.371
431	4.31	-102.344	-12.229	162.461	-147.092	-254.42	180.495	-131.564	-251.128	208.556	-46.816	-153.158	-8.669	-46.816	31.938	-8.669	0	0	0	-139.277	34.18	44.197	-125.901	26.733	162.478	-165.551	-76.246	45.471
432	4.32	-102.61	-12.271	162.357	-147.349	-254.469	180.329	-131.822	-251.183	208.392	-46.816	-153.158	-8.669	-46.816	31.938	-8.669	0	0	0	-139.279	33.984	44.331	-125.929	26.531	162.615	-165.583	-76.434	45.598
433	4.33	-102.838	-12.437	162.352	-147.63	-254.629	180.265	-132.104	-251.353	208.329	-46.816	-153.158	-8.669	-46.816	31.938	-8.669	0	0	0	-139.29	33.747	44.357	-125.946	26.29	162.642	-165.627	-76.663	45.623
434	4.34	-102.807	-12.623	162.479	-147.665	-254.808	180.331	-132.142	-251.542	208.399	-46.816	-153.158	-8.669	-46.816	31.938	-8.669	0	0	0	-139.188	33.555	44.308	-125.849	26.092	162.593	-165.548	-76.85	45.57
435	4.35	-102.543	-12.74	162.754	-147.429	-254.923	180.559	-131.913	-251.663	208.631	-46.816	-153.158	-8.669	-46.816	31.938	-8.669	0	0	0	-139.034	33.523	44.347	-125.712	26.052	162.633	-165.403	-76.879	45.599
436	4.36	-102.278	-12.801	162.971	-147.148	-254.987	180.775	-131.637	-251.725	208.85	-46.816	-153.158	-8.669	-46.816	31.938	-8.669	0	0	0	-139.006	33.634	44.486	-125.699	26.151	162.773	-165.372	-76.769	45.723
437	4.37	-102.203	-12.758	162.914	-147.02	-254.95	180.771	-131.504	-251.68	208.842	-46.816	-153.158	-8.669	-46.816	31.938	-8.669	0	0	0	-139.142	33.747	44.587	-125.835	26.256	162.873	-165.508	-76.657	45.817
438	4.38	-102.276	-12.531	162.721	-147.023	-254.732	180.637	-131.495	-251.453	208.701	-46.816	-153.158	-8.669	-46.816	31.938	-8.669	0	0	0	-139.318	33.783	44.603	-126.002	26.303	162.888	-165.694	-76.618	45.845
439	4.39	-102.307	-12.272	162.642	-147.024	-254.477	180.577	-131.488	-251.196	208.636	-46.816	-153.158	-8.669	-46.816	31.938	-8.669	0	0	0	-139.37	33.786	44.599	-126.041	26.332	162.885	-165.766	-76.61	45.872
440	4.4	-102.183	-12.245	162.708	-146.945	-254.442	180.627	-131.407	-251.167	208.685	-46.816	-153.158	-8.669	-46.816	31.938	-8.669	0	0	0	-139.182	33.793	44.593	-125.833	26.364	162.879	-165.604	-76.596	45.897
